<svg xmlns="http://www.w3.org/2000/svg" viewBox="0 0 64 64">
  <defs>
    <linearGradient id="g" x1="0" y1="0" x2="1" y2="1">
      <stop offset="0" stop-color="#6366f1" stop-opacity="0.95"/>
      <stop offset="0.55" stop-color="#a855f7" stop-opacity="0.9"/>
      <stop offset="1" stop-color="#22d3ee" stop-opacity="0.85"/>
    </linearGradient>
  </defs>
  <rect x="8" y="8" width="48" height="48" rx="16" fill="rgba(255,255,255,0.06)" stroke="rgba(255,255,255,0.18)"/>
  <path d="M20 44V20h8c4 0 7 1 9 3 2 2 3 5 3 9s-1 7-3 9c-2 2-5 3-9 3h-8zm8-6h1c2 0 3 0 4-1 1-1 1-2 1-5s0-4-1-5c-1-1-2-1-4-1h-1v12z" fill="url(#g)"/>
</svg>

